<?xml version="1.0" encoding="utf-8"?>
<!-- Generator: Adobe Illustrator 25.0.1, SVG Export Plug-In . SVG Version: 6.00 Build 0)  -->
<svg version="1.1" id="Layer_1" xmlns="http://www.w3.org/2000/svg" xmlns:xlink="http://www.w3.org/1999/xlink" x="0px" y="0px"
	 viewBox="0 0 206 126" style="enable-background:new 0 0 206 126;" xml:space="preserve">
<style type="text/css">
	.st0{fill:#509929;stroke:#000000;stroke-miterlimit:10;}
	.st1{fill:#257A4B;stroke:#000000;stroke-miterlimit:10;}
	.st2{fill:#23995B;stroke:#000000;stroke-miterlimit:10;}
	.st3{fill:#DBD152;stroke:#000000;stroke-miterlimit:10;}
	.st4{stroke:#000000;stroke-miterlimit:10;}
</style>
<path class="st0" d="M119.49,86c-1.76,5.55-3,9.48-3.58,11.31c-1.99,6.3-2.97,9.48-2.39,11.31c1.38,4.32,7.24,4.7,9.54,4.85
	c2.46,0.16,4.83,0.31,7.16-1.62c4.51-3.74,4.75-11.93,4.77-12.93"/>
<path class="st0" d="M54,92c1.11,2.39,2.36,5.94,2.38,10.31c0.01,3-0.56,3.76,0,5.15c2.24,5.51,16.59,6.36,19.06,1.29
	c0.53-1.09,0.35-2.44,0-5.15c-0.5-3.87-1.53-6.95-2.38-9.02"/>
<path class="st1" d="M43,86c2.38,1.77,5.32,3.76,8.76,5.71c1.09,0.62,4.33,2.42,8.76,4.28c1.34,0.56,3.52,1.44,13.14,4.28
	c9.07,2.68,11.1,3.07,13.14,1.43c2.21-1.79,2.13-5.78,3.29-5.71c1.28,0.07,1.08,4.58,3.29,7.14c0.61,0.71,2.32,2.33,12.05,0
	c4.22-1.01,9.11-2.22,15.33-5.71c2.36-1.32,4.49-2.84,6.57-4.28c3.19-2.22,5.8-4.22,7.67-5.71"/>
<path class="st0" d="M146.5,64.5c1.55,0.21,3.9,0.27,6-1c2-1.21,3.45-3.42,5-12c1.12-6.2,1.97-10.87,2-18c0.03-6.79-0.7-8.71,1-11
	c0.62-0.83,1.88-2.14,11-4c12.1-2.47,16.33-1.47,18-1c2.39,0.68,4.33,1.22,6,3c0.84,0.89,1.96,2.48,3,12c0.79,7.29,0.35,8.36,0,9
	c-2.05,3.76-7.27,4.57-10,5c-9.03,1.41-13.5-2.88-17,0c-0.72,0.59-1.49,3.07-3,8c-1.94,6.32-1.84,7.05-3,10
	c-1.29,3.27-2.46,6.25-5,9c-1.37,1.48-4.73,4.62-11,6"/>
<path class="st0" d="M143.5,77c3.26,1.82,5.54,3.91,7,5.44c1.38,1.45,2.8,2.96,4,5.44c0.71,1.46,1.14,3.15,2,6.53
	c0.79,3.1,1.18,4.67,1,5.44c-0.6,2.56-3.48,3.71-8,5.44c-7.12,2.73-11.81,2.31-13,2.18c-2.83-0.31-4.74-0.55-6-2.18
	c-1.5-1.94-0.4-3.69-1-8.71c-0.28-2.4-0.91-7.18-4-10.89c-1.44-1.72-2.99-2.72-4-3.27"/>
<path class="st0" d="M40.2,75c-2.61,4.19-4.74,7.69-6.28,10.24c-1.46,2.41-3.22,5.36-5.23,9.11c-3.06,5.69-4.59,8.57-4.19,10.24
	c1.04,4.37,7.79,6.44,11.51,6.83c2.02,0.21,1.86-0.11,5.23,0c5.43,0.18,6.55,0.41,8.37,0c1.14-0.25,4.28-0.95,4.87-2.92
	c0.35-1.16-0.41-1.97-2-5c-1.9-3.61-2.85-5.42-2.87-6.87c-0.02-0.95,0.18-2.21,4.19-7.97c1.68-2.41,3.15-4.35,4.19-5.69"/>
<path class="st2" d="M35.5,70.5c5.74-12.62,7.39-16.21,10-21c3.95-7.24,5.92-10.86,9-14c5.33-5.42,10.94-7.83,16-10
	c3.79-1.63,10.59-4.47,20-5c3.21-0.18,9.89-0.5,18,2c11.39,3.51,18.33,10.32,21,13c3.23,3.24,7.75,7.78,11,15
	c2.23,4.94,2.49,8.11,6,11c4.07,3.36,7.39,2.11,9,5c2.04,3.65-0.44,10.67-5,13c-0.09,0.05-0.15,0.08-0.23,0.11
	c-5.39,2.56-9.43-0.83-13.77-0.11c-4.26,0.71-3.73,4.56-10,9c-3.88,2.75-7.34,3.6-13,5c-7.39,1.82-13,1.9-21,2
	c-3.7,0.05-8.8-0.3-19-1c-9.27-0.64-11.7-1-14-3c-4.18-3.65-2.38-7.89-6-10c-3.25-1.89-5.73,0.92-17,3c-2.95,0.54-7.44,1.21-13,1
	c-8.03-0.31-10.16-2.14-11-3c-2.26-2.34-3.43-6.33-2-8c1.34-1.56,4.36-0.38,8,0C22.56,74.92,28.25,74.43,35.5,70.5z"/>
<path class="st3" d="M74.5,60.5c-3.1,4.52,0.4,7.11-2,16c-0.3,1.12-0.8,2.71,0,4c0.94,1.53,3.02,1.59,6,2c8.37,1.14,8.45,2.85,11,2
	c5.38-1.79,6.82-9.97,7-11c0.75-4.24-0.31-7.71-1-10c-0.84-2.76-1.36-4.5-3-6c-3.63-3.33-9.09-2.19-10-2
	C81.7,55.67,77.16,56.61,74.5,60.5z"/>
<path class="st3" d="M124.5,44.5c-2.78-0.38-5.15-0.7-8,0c-1.55,0.38-5.49,1.34-8,5c-1.91,2.79-1.98,5.67-2,7
	c-0.05,4.35,1.97,7.46,3,9c0.88,1.32,2.29,3.42,5,5c3.3,1.92,8.09,2.79,12,1c1.16-0.53,0.56-0.53,7-6c2.38-2.02,2.73-2.25,3-3
	c0.85-2.34-1.23-3.71-4-10c-1.76-4-1.95-5.77-4-7C127.51,44.91,126.51,44.77,124.5,44.5z"/>
<path class="st3" d="M57.5,42.5c2.12-0.05,3.81,1.15,5,2c1.22,0.87,3.43,2.43,4,5c0.76,3.44-1.89,6.54-4,9c-1.71,1.99-2.94,3.43-5,4
	c-3.6,1-8.45-0.51-10-4c-1.34-3.01,0.39-6.1,2-9C50.67,47.41,53.35,42.59,57.5,42.5z"/>
<path class="st3" d="M75.59,26.71c1.99-2.34,5.09-2.65,10.69-3.19c4.24-0.41,8.44-0.77,13.06,1.06c1.73,0.69,4.31,1.75,5.94,4.26
	c0.54,0.82,1.83,2.82,1.19,5.32c-0.6,2.31-2.56,3.61-3.56,4.26c-2,1.28-3.85,1.6-10.69,2.13c-9.7,0.74-10.8,0.47-11.88,0
	c-2.51-1.09-5.02-3.3-5.94-6.38C74.17,33.36,73.17,29.57,75.59,26.71z"/>
<circle class="st4" cx="184.5" cy="29.5" r="1"/>
</svg>
